<?xml version="1.0" encoding="UTF-8" standalone="no"?>
<svg
 width="210mm"
 height="297mm"
 viewBox="0 0 210 297"
 version="1.1"
 id="svg1"
 xml:space="preserve"
 xmlns="http://www.w3.org/2000/svg"
 xmlns:svg="http://www.w3.org/2000/svg"
 xmlns:rdf="http://www.w3.org/1999/02/22-rdf-syntax-ns#"
 xmlns:cc="http://creativecommons.org/ns#"
 xmlns:dc="http://purl.org/dc/elements/1.1/"><defs
 id="defs1" /><g
 id="layer2"
 transform="translate(1.8708867,-8.2319014)"><g
 id="g2"
 transform="matrix(1.0699203,0,0,1.0699203,-10.808408,-4.2800093)"><path
 style="display:inline;fill:none;stroke:#33ff33;stroke-width:0.899754;stroke-linecap:square;stroke-linejoin:round;stroke-dasharray:none;stroke-opacity:1"
 d="m 136.99581,88.241603 0.0146,114.243017 c 0.0146,12.56475 -6.98374,24.00006 -18.34416,30.18774 -11.36042,6.18768 -25.357032,6.18768 -36.717454,0 C 70.588384,226.48468 63.590074,215.04937 63.662335,202.49579 L 63.869372,88.317731 c 0.134776,-12.415483 7.085247,-23.772633 18.368021,-29.918023 11.282775,-6.145378 25.183717,-6.145378 36.466487,0 11.28278,6.14539 18.23326,17.50254 18.23326,29.79332"
 id="path5" /><path
 style="fill:none;stroke:#33ff33;stroke-width:0.899754;stroke-linecap:square;stroke-linejoin:round;stroke-dasharray:none;stroke-opacity:1"
 d="m 62.172355,239.28546 c -1.092886,0 -2.102749,0.58006 -2.64918,1.52168 -0.546442,0.94162 -0.546442,2.10176 0,3.04338 0.546431,0.94162 1.556294,1.5217 2.960752,1.43196 l 77.579513,-3e-5 c 1.2826,0.0897 2.29246,-0.49035 2.83889,-1.43197 0.54645,-0.94162 0.54645,-2.10175 0,-3.04338 -0.54643,-0.94162 -1.55629,-1.52168 -2.64918,-1.52168 l -18.72639,0.0608 c 0,0 20.16819,-6.85771 20.17461,-34.06163 l -2.8e-4,-117.918114 c -0.004,-14.065375 -7.86237,-26.842104 -20.62064,-33.755638 -12.75827,-6.913535 -28.477118,-6.913535 -41.235396,0 C 67.086788,60.52432 59.227355,73.301049 59.227355,87.128118 V 205.16288 c -0.178525,23.77336 22.492214,35.47105 22.492214,35.47105 z"
 id="path8" /></g><g
 id="g35"
 transform="rotate(90,117.88901,122.89045)"
 style="stroke-width:0.7;stroke-dasharray:none"><g
 id="g41"
 style="stroke-width:0.7;stroke-dasharray:none" /><g
 id="g1"
 transform="rotate(-90,115.69284,171.28609)"
 style="stroke-width:0.7;stroke-dasharray:none"><path
 id="path1"
 style="fill:none;stroke:#33ff33;stroke-width:0.7;stroke-linecap:round;stroke-linejoin:round;stroke-dasharray:none;paint-order:stroke fill markers"
 d="m 141.21434,120.41767 c 0.0897,-0.87254 0.25731,-1.62022 0.37223,-2.31789 0.10415,-0.63204 0.25855,-1.79996 0.4183,-2.57076 0.0972,-0.4691 0.66417,2.11129 0.80418,2.77095 0.12984,0.61166 0.39164,2.0684 0.39164,2.0684 0,0 -1.98956,0.0805 -1.98635,0.0493 z m 5.61452,-2.67447 c -0.41468,-0.0346 0.33622,1.16101 0.34755,1.94436 l 0.38453,2.16754 -0.34125,1.48034 0.19072,2.61711 c 0.0569,0.78121 0.0171,1.80002 0.40677,1.94611 0.38963,0.14609 2.35481,-1.92735 2.07443,-2.65421 -0.30969,-0.80283 -0.59106,-0.66132 -1.02228,-2.06827 l 0.12587,-1.87539 -0.42383,-1.52327 c -0.16434,-0.76149 -0.8478,-1.95976 -1.74251,-2.03432 z m -9.27282,0.0524 c 0.38248,-0.16393 -0.0386,1.06179 -0.0499,1.84514 l -0.38453,2.16754 0.34125,1.48034 -0.19072,2.61711 c -0.0569,0.78121 -0.0171,1.80002 -0.40677,1.94611 -0.38963,0.14609 -2.35481,-1.92735 -2.07443,-2.65421 0.30969,-0.80283 0.59106,-0.66132 1.02228,-2.06827 l -0.12587,-1.87539 0.42383,-1.52327 c 0.0953,-0.83504 0.66713,-1.60179 1.44485,-1.9351 z m -0.18598,9.73155 c 0.17402,-4.14649 2.43983,-7.32619 5.11368,-7.17624 2.67386,0.14995 4.78609,3.57518 4.76708,7.73036 m -4.28036,-7.70485 c -2.09139,-0.005 -3.81317,0.26511 -5.37686,1.87666 -1.92453,-2.02566 -5.08973,-2.27161 -7.55586,-1.68513 -1.71067,0.4068 -3.02545,1.61278 -3.79379,3.00893 -0.85335,1.55062 -1.03264,3.37131 -0.33161,5.34824 0.85387,2.96856 8.84784,7.87242 10.97919,8.48599 1.63243,-0.79408 8.81877,-3.30675 11.41618,-8.35027 1.51054,-3.72896 -0.0301,-7.48907 -3.62484,-8.45976 -0.54845,-0.14797 -1.12381,-0.22345 -1.71241,-0.22466 z" /><path
 id="path_hawk"
 style="fill:none;stroke:#33ff33;stroke-width:0.7;stroke-linecap:round;stroke-linejoin:round;stroke-dasharray:none;paint-order:stroke fill markers"
 d="m 140.27422,130.57227 c 4.29624,1.74698 8.53985,2.87298 11.82226,3.72461 1.64121,0.42582 3.04335,0.78267 4.08008,1.10938 0.51837,0.16335 0.94547,0.32024 1.25781,0.46679 0.31234,0.14655 0.50339,0.2955 0.55274,0.36133 0.16221,0.12437 0.49599,0.80642 0.70508,1.73633 0.20909,0.92992 0.35763,2.1033 0.44727,3.27149 0.0896,1.16818 0.12134,2.33323 0.0976,3.25195 -0.0118,0.45936 -0.0377,0.85842 -0.0742,1.1582 -0.0365,0.29979 -0.11136,0.52385 -0.10546,0.51368 -0.2846,0.49157 -0.42004,0.94183 -0.26172,1.35742 0.15832,0.41559 0.57771,0.62918 1.04101,0.71093 0.56555,0.0998 1.254,-0.0814 1.875,-0.25195 0.621,-0.17057 1.13672,-0.35937 1.13672,-0.35937 m -19.644529,-20.18945 c 2.62773,0.18308 4.599907,0.53691 6.216797,1.38672 1.621843,0.8524 2.923449,2.2093 4.210938,4.49804" /></g></g></g></svg>