<?xml version="1.0" encoding="UTF-8" standalone="no"?>
<!-- Created with Inkscape (http://www.inkscape.org/) -->

<svg
   width="210mm"
   height="297mm"
   viewBox="0 0 210 297"
   version="1.1"
   id="svg1"
   xml:space="preserve"
   sodipodi:docname="Ka_Cartouche_simplified.svg"
   inkscape:version="1.4.2 (f4327f4, 2025-05-13)"
   xmlns:inkscape="http://www.inkscape.org/namespaces/inkscape"
   xmlns:sodipodi="http://sodipodi.sourceforge.net/DTD/sodipodi-0.dtd"
   xmlns="http://www.w3.org/2000/svg"
   xmlns:svg="http://www.w3.org/2000/svg"
   xmlns:rdf="http://www.w3.org/1999/02/22-rdf-syntax-ns#"
   xmlns:cc="http://creativecommons.org/ns#"
   xmlns:dc="http://purl.org/dc/elements/1.1/"><sodipodi:namedview
     id="namedview1"
     pagecolor="#ffffff"
     bordercolor="#111111"
     borderopacity="1"
     inkscape:showpageshadow="0"
     inkscape:pageopacity="0"
     inkscape:pagecheckerboard="1"
     inkscape:deskcolor="#d1d1d1"
     inkscape:document-units="mm"
     inkscape:zoom="0.99062851"
     inkscape:cx="191.2927"
     inkscape:cy="528.95712"
     inkscape:window-width="1920"
     inkscape:window-height="1058"
     inkscape:window-x="-6"
     inkscape:window-y="-3"
     inkscape:window-maximized="1"
     inkscape:current-layer="layer2" /><defs
     id="defs1" /><g
     id="layer2"
     transform="translate(1.8708867,-8.2319014)"><g
       id="g2"
       transform="matrix(1.0699203,0,0,1.0699203,-10.808408,-4.2800093)"><path
         style="baseline-shift:baseline;display:inline;overflow:visible;opacity:1;vector-effect:none;stroke-linecap:square;stroke-linejoin:round;enable-background:accumulate;stop-color:#000000;stop-opacity:1"
         d="M 100.4707,53.339844 C 82.277115,52.856939 64.63716,67.455959 63.525878,85.967269 63.228776,125.2005 63.327671,164.44576 63.226951,203.68341 c 0.179217,18.71504 17.588283,34.01052 35.878496,34.06304 18.279293,1.03399 36.587453,-13.07438 38.174343,-31.71474 0.41061,-22.5568 0.0618,-45.13898 0.17239,-67.7058 -0.0832,-17.1992 0.15642,-34.63038 -0.12691,-51.685392 C 136.66593,67.646035 119.01631,52.98511 100.4707,53.339844 Z m 0,0.902343 c 18.05346,-0.510772 35.67143,14.323393 35.99564,32.817621 0.1791,38.740122 0.0616,77.742522 0.0754,116.583422 -0.24044,18.25135 -17.21014,33.15215 -35.05943,33.20128 -17.802881,1.00844 -35.719365,-12.70181 -37.209382,-30.89568 -0.356039,-20.37363 0.01885,-40.76993 -0.05694,-61.15224 0.101279,-19.58634 -0.06075,-39.17978 0.205781,-58.761677 C 65.592255,67.84027 82.616775,53.88816 100.4707,54.242187 Z"
         id="path5" /><path
         style="baseline-shift:baseline;display:inline;overflow:visible;opacity:1;vector-effect:none;stroke-linecap:square;stroke-linejoin:round;enable-background:accumulate;stop-color:#000000;stop-opacity:1"
         d="m 100.46289,47.974609 c -19.936649,-0.488633 -39.617489,14.937698 -41.478177,35.24967 -0.467032,20.233941 -0.08144,40.497301 -0.207369,60.742991 0.105943,21.69585 -0.215671,43.40498 0.167734,65.09223 1.115848,13.07632 9.910623,24.48708 21.002188,31.00105 -6.227912,-0.29983 -12.471644,-1.11723 -18.689992,-1.10371 -5.896708,2.69445 -0.276259,8.44918 4.241261,6.77563 25.164768,-0.0444 50.501445,0.0887 75.558755,-0.0663 5.89281,-2.17174 0.74223,-8.58532 -3.81947,-6.82041 -4.56885,0.0149 -9.13771,0.0299 -13.70656,0.0448 13.62816,-6.38683 19.6003,-22.32105 18.61914,-36.61962 -0.0613,-39.18471 0.12316,-78.3748 -0.0932,-117.556119 -1.15718,-21.096689 -20.99276,-37.152298 -41.5943,-36.740292 z m 0,0.902344 c 19.56023,-0.493751 38.84614,14.67899 40.58581,34.618767 0.45855,20.65391 0.0793,41.33634 0.20325,62.00162 -0.0794,21.14877 0.16261,42.30489 -0.12809,63.44884 -0.57183,12.52807 -7.80871,25.18463 -19.74105,29.97374 0.57672,1.86653 5.21936,0.4033 7.46458,0.85252 4.22652,0.1865 8.55982,-0.4519 12.71182,0.31027 4.13609,5.03528 -3.79018,5.09698 -7.09443,4.74927 -24.29174,-0.0267 -48.586367,0.0534 -72.876311,-0.0398 -5.630305,-4.12886 2.59943,-5.93573 6.162012,-4.6709 4.757485,0.20708 9.594276,0.90065 14.303255,0.81018 -5.660718,-4.58237 -12.983541,-9.48501 -16.840255,-16.47977 -5.579198,-8.06798 -5.804253,-18.04868 -5.53575,-27.47092 0.05962,-37.46575 -0.11958,-74.93679 0.09022,-112.399215 1.198605,-20.549902 20.655605,-36.105038 40.694944,-35.704572 z"
         id="path8" /></g><g
       id="g35"
       transform="rotate(90,117.88901,122.89045)"
       style="stroke-width:0.7;stroke-dasharray:none"><g
         id="g41"
         style="stroke-width:0.7;stroke-dasharray:none" /><g
         id="g1"
         transform="rotate(-90,115.69284,171.28609)"
         style="stroke-width:0.7;stroke-dasharray:none"><path
           style="baseline-shift:baseline;display:inline;overflow:visible;opacity:1;vector-effect:none;stroke-linecap:round;stroke-linejoin:round;paint-order:stroke fill markers;enable-background:accumulate;stop-color:#000000;stop-opacity:1"
           d="m 129.51562,111.25391 c -4.01646,5.44819 -4.31125,14.73954 -0.7599,20.9163 3.25485,4.74945 -5.75626,11.64074 -2.93318,17.7423 3.11522,8.57434 3.01461,-6.19943 4.63059,-8.88882 0.35453,6.95568 -2.06324,13.52987 -1.43846,20.46984 -1.44691,3.85316 6.28471,14.77224 5.22167,6.31938 -1.38603,-3.90798 -2.22233,-7.88891 -1.72466,-12.04688 5.12101,8.36841 17.29268,4.20837 20.10944,-1.29497 3.52893,5.1833 -4.92171,14.5935 -0.46519,16.65087 4.30289,-3.63291 5.37945,-10.88891 3.89992,-16.46747 -1.43484,-4.06473 -2.20984,-8.05497 -2.34672,-12.34096 2.27343,-1.86324 1.3834,8.2664 3.40394,10.18942 3.66183,-3.30988 1.65878,-11.17271 -2.06131,-14.6739 -2.11828,-4.85998 8.83583,-11.62133 3.58498,-18.17527 0.10655,-4.58357 -9.8159,-11.28948 -5.5145,-2.95686 3.75718,2.94498 3.20508,13.90821 -0.50751,13.20483 -2.54849,-2.30796 -4.62513,-1.47853 -2.39613,-4.78229 -1.75195,-2.23901 0.15933,-6.52525 -3.36136,-7.72465 -0.57633,0.82686 0.90769,7.83726 -0.25804,6.01308 -2.44695,-2.11536 0.86596,-9.82778 -3.21078,-3.92914 -0.18234,-5.02866 -2.54575,-5.25698 -2.40625,0.18162 -3.41053,-8.49574 -1.60855,5.03121 -3.17001,3.60227 -1.15975,-1.78369 1.24049,-4.66025 -0.39449,-5.78778 -3.35152,2.38262 -2.00192,9.7188 -2.61889,10.41208 -8.01615,2.17439 -2.62337,-11.0503 -4.11891,-15.48245 l -0.73438,-0.89453 -0.42969,-0.25586 z m -0.17773,0.6875 c 2.9573,5.11844 -2.59695,12.74132 2.3457,17.83006 -3.09917,7.13167 -5.98194,-7.61661 -4.31541,-10.57374 0.59849,-2.37364 0.89382,-5.10674 1.96971,-7.25632 z m 23.27539,0.92968 c 6.72535,3.90929 8.2442,13.80111 3.07031,19.68736 -4.41793,4.00309 0.48766,-5.4858 1.03339,-8.0253 -0.11623,-4.29288 -3.60162,-7.58245 -4.1037,-11.66206 z m -10.48047,4.05274 c 2.45934,4.87406 -1.91863,3.64648 0,0 z m -2.72461,1.29492 c 2.69878,3.88105 -1.15816,4.02942 0,0 z m 7.78321,0.14648 c 1.52676,2.23419 3.14384,8.25479 0.64468,8.75583 -0.58427,-3.09234 0.64043,-5.91119 -0.64468,-8.75583 z m -9.87305,0.0527 c -0.86475,2.85276 0.10505,5.99213 -0.5564,9.04686 -2.95174,-1.83049 0.17378,-4.94233 -0.30247,-7.69532 l 0.28681,-0.75253 0.57257,-0.59903 z m 7.7832,0.11719 c 1.54614,4.04121 -3.57697,1.85836 0,0 z m -2.52734,2.20703 c 6.95528,1.817 3.61497,11.58916 -2.45556,7.42484 -5.54437,1.29456 -0.77206,-8.11219 2.45556,-7.42484 z m 5.23633,7.64453 c 9.84757,1.07352 4.36353,13.2542 -2.53051,14.68046 -5.64785,3.66131 -15.21051,-3.98552 -14.32095,-10.41416 2.09713,-8.11855 10.23941,-0.97962 14.07509,-3.95837 l 1.31573,-0.24911 1.46064,-0.0588 z m -17.61524,7.16211 c 1.13109,5.02333 -3.19529,10.40547 -2.26172,15.86326 -2.68328,0.35234 -1.39451,-10.16797 0.90722,-13.28106 l 0.7491,-1.54512 0.60547,-1.03711 z m 23.2168,1.55273 c 4.26565,3.46813 5.42838,8.84101 4.52931,14.06253 -2.89597,0.28297 0.11238,-9.72973 -4.67387,-11.38094 0.056,-0.73889 -0.4841,-1.96975 0.14456,-2.68159 z m -21.92188,1.09766 c 4.44934,6.166 12.73462,9.67349 18.3949,2.69503 4.31511,-5.66799 4.1587,8.49068 2.70658,11.72878 -3.76902,10.54769 -19.82013,8.96884 -21.65691,-1.7486 -0.54861,-4.21258 -0.11596,-8.50325 0.55543,-12.67521 z m -1.36718,12.0039 c 0.0487,0.20476 -0.0221,0.0189 0,0 z m 23.91406,0.006 c 2.21422,5.90199 2.90411,12.53011 -0.32618,18.25586 -6.10804,6.00848 1.81251,-7.01612 0.003,-10.35944 -0.42349,-2.74751 -0.63107,-5.25144 0.32283,-7.89642 z m -23.70313,1.78321 c 2.7835,4.02156 0.2745,8.95886 2.41724,13.1871 1.7991,3.41384 0.9244,8.19093 -1.6513,2.33209 -1.57398,-4.96178 -2.21323,-10.4467 -0.76594,-15.51919 z"
           id="path1" /></g></g><g
       id="g34"
       transform="matrix(1.0980558,0,0,1.0980558,-16.306259,10.052091)"
       style="stroke-width:1.3;stroke-dasharray:none"><path
         style="baseline-shift:baseline;display:inline;overflow:visible;opacity:1;stroke-width:1.3;stroke-linecap:square;stroke-linejoin:round;stroke-dasharray:none;paint-order:stroke fill markers;enable-background:accumulate;stop-color:#000000;stop-opacity:1"
         d="m 87.453125,127.71875 c -1.030969,4.24329 4.396872,10.29216 7.396484,14.14648 2.441755,3.05823 8.374911,9.89971 7.011531,1.25887 -0.56722,-7.93162 -0.90984,0.37726 -1.04083,3.60639 -5.738255,-5.18053 -11.238332,-11.41026 -13.367185,-19.01174 z"
         id="path3" /><path
         style="baseline-shift:baseline;display:inline;overflow:visible;opacity:1;stroke-width:1.3;stroke-linecap:square;stroke-linejoin:round;stroke-dasharray:none;paint-order:stroke fill markers;enable-background:accumulate;stop-color:#000000;stop-opacity:1"
         d="m 101.26758,138.59766 c 0.16617,3.93787 10.1999,4.21915 11.79089,9.78085 3.72618,3.23646 8.12456,12.40862 12.87308,10.10599 -5.57193,-0.19069 -8.7928,-7.56113 -12.86596,-11.2666 -2.45844,-5.34847 -8.51889,-4.9166 -11.79801,-8.62024 z"
         id="path4" /><path
         style="baseline-shift:baseline;display:inline;overflow:visible;opacity:1;stroke-width:1.3;stroke-linecap:square;stroke-linejoin:round;stroke-dasharray:none;paint-order:stroke fill markers;enable-background:accumulate;stop-color:#000000;stop-opacity:1"
         d="m 112.01953,143.4668 c 1.69986,4.60728 8.78033,9.4585 12.33372,14.09666 6.8172,3.93387 -2.27374,-2.68338 -3.87287,-5.17249 -2.82024,-2.9746 -5.58817,-5.99987 -8.46085,-8.92417 z"
         id="path6" /><path
         style="baseline-shift:baseline;display:inline;overflow:visible;opacity:1;stroke-width:1.3;stroke-linecap:square;stroke-linejoin:round;stroke-dasharray:none;paint-order:stroke fill markers;enable-background:accumulate;stop-color:#000000;stop-opacity:1"
         d="m 113.39648,143.14062 c 1.58056,4.16498 8.00201,8.52682 11.29303,12.80314 1.75929,3.80431 7.34011,3.33414 2.34075,1.29643 -4.60954,-4.63563 -8.91871,-9.56992 -13.63378,-14.09957 z"
         id="path7" /><path
         style="baseline-shift:baseline;display:inline;overflow:visible;opacity:1;stroke-width:1.3;stroke-linecap:square;stroke-linejoin:round;stroke-dasharray:none;paint-order:stroke fill markers;enable-background:accumulate;stop-color:#000000;stop-opacity:1"
         d="m 114.57422,142.82617 c 2.46408,4.73912 9.34221,9.96914 13.37568,14.83248 2.41427,2.58226 4.58657,-1.53457 1.10869,-0.0376 -5.0212,-4.73573 -9.38286,-10.13574 -14.48437,-14.79492 z"
         id="path9" /><path
         style="baseline-shift:baseline;display:inline;overflow:visible;opacity:1;stroke-width:1.3;stroke-linecap:square;stroke-linejoin:round;stroke-dasharray:none;paint-order:stroke fill markers;enable-background:accumulate;stop-color:#000000;stop-opacity:1"
         d="m 117.35156,143.85156 c 2.03614,4.55848 9.15583,9.26686 13.12696,13.74414 3.56398,-0.61486 -5.24019,-3.91017 -6.49635,-7.33645 -2.20025,-2.14582 -4.36924,-4.32567 -6.63061,-6.40769 z"
         id="path10" /><path
         style="baseline-shift:baseline;display:inline;overflow:visible;opacity:1;stroke-width:1.3;stroke-linecap:round;stroke-linejoin:round;stroke-dasharray:none;paint-order:stroke fill markers;enable-background:accumulate;stop-color:#000000;stop-opacity:1"
         d="m 119.64063,144.50586 c 0.76022,3.55557 8.57992,8.07218 11.68555,11.87105 6.16535,-2.43399 -6.03087,-7.43641 -7.62395,-10.50051 -3.44241,-1.07111 5.31596,5.26488 6.50721,6.72576 5.85834,6.89734 -4.00917,-1.40402 -5.71096,-3.60639 -1.62137,-1.49357 -3.20587,-3.03089 -4.85785,-4.48991 z"
         id="path12" /><path
         style="baseline-shift:baseline;display:inline;overflow:visible;opacity:1;stroke-width:1.3;stroke-linecap:round;stroke-linejoin:round;stroke-dasharray:none;paint-order:stroke fill markers;enable-background:accumulate;stop-color:#000000;stop-opacity:1"
         d="m 87.179687,105.56641 c -2.925363,-0.46136 -8.259294,2.38423 -1.988419,0.95458 8.054856,-3.2138 13.353705,8.4333 3.57831,9.31106 9.718595,0.73707 7.448005,-11.71917 -1.589891,-10.26564 z"
         id="path13" /><path
         style="baseline-shift:baseline;display:inline;overflow:visible;opacity:1;stroke-width:1.3;stroke-linecap:round;stroke-linejoin:round;stroke-dasharray:none;paint-order:stroke fill markers;enable-background:accumulate;stop-color:#000000;stop-opacity:1"
         d="m 86.001953,105.81055 c -6.393433,4.09819 6.252709,4.13296 0,0 z m 0,0.67578 c 3.977246,2.65574 -3.840156,2.32002 0,0 z"
         id="path14" /><path
         style="baseline-shift:baseline;display:inline;overflow:visible;opacity:1;stroke-width:1.3;stroke-linecap:round;stroke-linejoin:round;stroke-dasharray:none;paint-order:stroke fill markers;enable-background:accumulate;stop-color:#000000;stop-opacity:1"
         d="m 92.425781,107.55273 c -2.145653,-0.61163 -11.78191,2.82513 -4.710937,1.44535 0.204511,-0.66065 7.493789,-0.0573 4.710937,-1.44535 z"
         id="path15" /><path
         style="baseline-shift:baseline;display:inline;overflow:visible;opacity:1;stroke-width:1.3;stroke-linecap:round;stroke-linejoin:round;stroke-dasharray:none;paint-order:stroke fill markers;enable-background:accumulate;stop-color:#000000;stop-opacity:1"
         d="m 87.28125,104.57227 c -4.081944,-1.33176 -12.578929,3.54142 -8.35352,6.88086 3.599724,-5.58069 2.654292,10.17601 5.535666,13.05961 6.237051,12.2182 20.782724,15.79614 32.968244,18.9482 5.89066,2.15522 11.0478,5.97113 16.57614,8.83979 2.56018,-4.72503 -8.95384,-8.50425 -12.05081,-12.41192 -6.36562,-8.59119 -10.15224,-19.83636 -20.08098,-25.19597 -4.44781,-4.30035 -6.891868,-10.8106 -14.59474,-10.12057 z m -0.01172,0.76953 c 8.41998,-1.06289 10.284684,8.34854 16.45004,11.57451 8.48872,5.54046 11.72395,15.84526 17.72578,23.54851 2.80455,2.87305 14.0414,9.03758 11.72353,10.6059 -7.32752,-4.74286 -14.99545,-8.96177 -23.65731,-10.55315 -11.126949,-2.94303 -23.910097,-9.2834 -26.166116,-21.78571 -0.807645,-2.6359 -1.061459,-14.01197 -4.773145,-8.58356 -0.451914,-4.34 5.70392,-4.72801 8.697221,-4.8065 z"
         id="path16" /><path
         style="baseline-shift:baseline;display:inline;overflow:visible;opacity:1;stroke-width:1.3;stroke-linecap:round;stroke-linejoin:round;stroke-dasharray:none;paint-order:stroke fill markers;enable-background:accumulate;stop-color:#000000;stop-opacity:1"
         d="m 90.773437,116.47656 c -2.853805,-1.25805 -13.085893,2.1544 -4.792968,0.77158 7.251231,-0.29885 15.889771,-0.26092 19.938221,6.93821 4.00123,5.36634 7.57602,11.15466 11.98288,16.16269 -0.64431,-3.62445 -5.93511,-7.90805 -7.97296,-11.86431 -3.7905,-5.89207 -8.7029,-12.6461 -16.616224,-11.8513 l l -1.260167,-0.0885 -1.278962,-0.0685 z"
         id="path17" /><path
         style="baseline-shift:baseline;display:inline;overflow:visible;opacity:1;stroke-width:1.3;stroke-linecap:round;stroke-linejoin:round;stroke-dasharray:none;paint-order:stroke fill markers;enable-background:accumulate;stop-color:#000000;stop-opacity:1"
         d="m 87.496094,110.27734 c -5.752574,0.49002 -3.378556,1.23939 1.025392,1.09965 -0.704082,6.99737 3.159314,-1.05394 -1.025392,-1.09965 z"
         id="path18" /><path
         style="baseline-shift:baseline;display:inline;overflow:visible;opacity:1;stroke-width:1.3;stroke-linecap:round;stroke-linejoin:round;stroke-dasharray:none;paint-order:stroke fill markers;enable-background:accumulate;stop-color:#000000;stop-opacity:1"
         d="m 85.681641,125.79883 c -1.204941,5.63258 2.298363,11.9816 2.867191,17.89258 0.721329,5.41719 -3.166713,8.20822 -5.759772,10.88086 0.856693,-0.50312 5.086992,-1.82589 5.315426,-4.87909 2.928184,-6.79077 -1.045839,-13.68882 -1.949272,-20.47067 -0.96445,-0.98379 0.553094,-3.16724 -0.473573,-3.42368 z"
         id="path19" /><path
         style="baseline-shift:baseline;display:inline;overflow:visible;opacity:1;stroke-width:1.3;stroke-linecap:round;stroke-linejoin:round;stroke-dasharray:none;paint-order:stroke fill markers;enable-background:accumulate;stop-color:#000000;stop-opacity:1"
         d="m 89.189453,143.35352 c 1.088081,0.298 2.725869,4.44817 3.668024,5.32412 0.513582,-2.39478 -1.001124,-5.17639 -3.668024,-5.32412 z"
         id="path21" /><path
         style="baseline-shift:baseline;display:inline;overflow:visible;opacity:1;stroke-width:1.3;stroke-linecap:round;stroke-linejoin:round;stroke-dasharray:none;paint-order:stroke fill markers;enable-background:accumulate;stop-color:#000000;stop-opacity:1"
         d="m 95.226562,143.94727 c -1.010648,1.91883 -5.100449,7.65143 -0.700215,3.15106 0.266138,-0.6917 1.771589,-2.60763 0.700215,-3.15106 z"
         id="path22" /><path
         style="baseline-shift:baseline;display:inline;overflow:visible;opacity:1;stroke-width:1.3;stroke-linecap:round;stroke-linejoin:round;stroke-dasharray:none;paint-order:stroke fill markers;enable-background:accumulate;stop-color:#000000;stop-opacity:1"
         d="m 91.107422,144.54492 c -1.657453,2.80149 -2.244521,12.43336 -0.293624,4.09082 -0.426613,-0.96137 1.402339,-3.42784 0.293624,-4.09082 z"
         id="path23" /><path
         style="baseline-shift:baseline;display:inline;overflow:visible;opacity:1;stroke-width:1.3;stroke-linecap:round;stroke-linejoin:round;stroke-dasharray:none;paint-order:stroke fill markers;enable-background:accumulate;stop-color:#000000;stop-opacity:1"
         d="m 95.103516,143.76758 c -1.310589,5.02014 -1.36237,15.2374 6.892574,10.11133 3.69936,3.1138 1.79382,-5.00507 -1.88708,-2.05166 -3.015597,1.0877 -1.767859,-12.50267 -2.578266,-5.31232 -1.370535,5.35998 1.764311,6.3855 5.867876,6.43024 -0.52101,0.36514 -9.825554,3.48067 -7.882983,-1.86853 0.04464,-2.25074 0.7179,-5.40187 -0.412121,-7.30906 z"
         id="path25" /><path
         style="baseline-shift:baseline;display:inline;overflow:visible;opacity:1;stroke-width:1.3;stroke-linecap:round;stroke-linejoin:round;stroke-dasharray:none;paint-order:stroke fill markers;enable-background:accumulate;stop-color:#000000;stop-opacity:1"
         d="m 85.341797,152 c -3.790508,-1.63629 -3.565951,4.19896 -1.890634,2.37887 -3.166244,-2.32383 3.74688,-0.65598 1.890634,-2.37887 z"
         id="path26" /><path
         style="baseline-shift:baseline;display:inline;overflow:visible;opacity:1;stroke-width:1.3;stroke-linecap:round;stroke-linejoin:round;stroke-dasharray:none;paint-order:stroke fill markers;enable-background:accumulate;stop-color:#000000;stop-opacity:1"
         d="m 87.277344,152.24805 c -4.423014,0.10125 -2.29613,5.35129 -0.0411,0.80667 0.504223,-0.0371 0.60733,-0.76663 0.0411,-0.80667 z"
         id="path27" /><path
         style="baseline-shift:baseline;display:inline;overflow:visible;opacity:1;stroke-width:1.3;stroke-linecap:round;stroke-linejoin:round;stroke-dasharray:none;paint-order:stroke fill markers;enable-background:accumulate;stop-color:#000000;stop-opacity:1"
         d="m 89.455078,151.71875 c -0.998036,1.32952 8.527675,1.90056 1.755039,1.03364 -3.214623,-1.28525 -5.901353,4.36966 -1.81168,0.71831 2.952236,0.31971 8.431929,1.59607 3.160606,-1.54552 -1.017426,-0.23988 -2.066716,-0.25991 -3.103965,-0.20643 z"
         id="path28" /><path
         style="baseline-shift:baseline;display:inline;overflow:visible;opacity:1;stroke-width:1.3;stroke-linecap:round;stroke-linejoin:round;stroke-dasharray:none;paint-order:stroke fill markers;enable-background:accumulate;stop-color:#000000;stop-opacity:1"
         d="m 88.875,152.48047 c -3.497283,0.15608 -1.399117,4.70006 -0.203121,0.7421 0.597522,0.0959 0.614393,-0.64602 0.203121,-0.7421 z"
         id="path29" /><path
         style="baseline-shift:baseline;display:inline;overflow:visible;opacity:1;stroke-width:1.3;stroke-linecap:round;stroke-linejoin:round;stroke-dasharray:none;paint-order:stroke fill markers;enable-background:accumulate;stop-color:#000000;stop-opacity:1"
         d="m 94.867187,152.9375 c -4.76103,-0.69343 -2.132786,6.986 -0.755311,1.69076 0.0337,0.14865 2.003291,-1.56367 0.755311,-1.69076 z m -1.101562,1.11719 c -1.742573,2.91379 -1.372853,-0.003 0,0 z m -1.175781,2.23047 c 0.05315,0.31598 -0.08268,0.0527 0,0 z"
         id="path30" /><path
         style="baseline-shift:baseline;display:inline;overflow:visible;opacity:1;stroke-width:1.3;stroke-linecap:round;stroke-linejoin:round;stroke-dasharray:none;paint-order:stroke fill markers;enable-background:accumulate;stop-color:#000000;stop-opacity:1"
         d="m 95.544922,153.65625 c -4.034326,0.9858 1.139119,6.62142 -0.794919,1.41992 0.172473,-0.48672 2.335401,-0.96755 0.794919,-1.41992 z"
         id="path31" /><path
         style="baseline-shift:baseline;display:inline;overflow:visible;opacity:1;stroke-width:1.3;stroke-linecap:round;stroke-linejoin:round;stroke-dasharray:none;paint-order:stroke fill markers;enable-background:accumulate;stop-color:#000000;stop-opacity:1"
         d="m 95.744141,153.98828 c -3.587801,5.34092 1.184957,3.75492 0,0 z"
         id="path32" /><path
         style="baseline-shift:baseline;display:inline;overflow:visible;opacity:1;stroke-width:1.3;stroke-linecap:round;stroke-linejoin:round;stroke-dasharray:none;paint-order:stroke fill markers;enable-background:accumulate;stop-color:#000000;stop-opacity:1"
         d="m 97.082031,154.33789 c -2.669928,1.67681 1.345406,6.24398 -0.103525,1.14648 0.274501,-0.32823 1.206065,-1.00212 0.103525,-1.14648 z"
         id="path33" /><path
         style="baseline-shift:baseline;display:inline;overflow:visible;opacity:1;stroke-width:1.3;stroke-linecap:round;stroke-linejoin:round;stroke-dasharray:none;paint-order:stroke fill markers;enable-background:accumulate;stop-color:#000000;stop-opacity:1"
         d="m 98.189453,154.60937 c -3.061134,0.90391 -0.916388,5.83981 -0.394536,1.20702 -0.01,-0.34239 0.814292,-0.80005 0.394536,-1.20702 z"
         id="path34" /></g><g
       id="g38"
       transform="matrix(1.0396155,0,0,1.0396155,-55.897193,78.915631)"><path
         style="baseline-shift:baseline;display:inline;overflow:visible;opacity:1;vector-effect:none;stroke-linecap:round;stroke-linejoin:round;paint-order:stroke fill markers;enable-background:accumulate;stop-color:#000000;stop-opacity:1"
         d="m 144.00977,105.42578 c -6.91931,0.32391 -1.6234,11.96371 -3.33325,17.21803 1.40793,7.12925 -4.53038,18.52165 1.93598,22.73045 9.49498,-1.65359 5.82621,9.33415 7.83278,13.42261 7.48482,-0.0748 0.33114,-11.94021 2.35516,-16.79345 -0.61678,-10.53265 1.28957,-21.43639 -1.80903,-31.67499 -1.09307,-2.91752 -3.88755,-4.81461 -6.98164,-4.90265 z m -0.0625,0.75781 c 9.44641,1.31562 7.65231,13.17742 8.04871,20.2335 -0.047,10.38222 -0.13615,20.78958 0.92589,31.13174 -6.37341,1.95302 1.77905,-13.6212 -7.45159,-12.5067 -9.62468,-0.0685 -2.76888,-12.88534 -4.13642,-18.92092 1.21454,-6.1601 -1.55838,-15.74735 1.46313,-19.94344 l 1.15034,0.006 z"
         id="path36" /><path
         style="baseline-shift:baseline;display:inline;overflow:visible;opacity:1;vector-effect:none;stroke-linecap:round;stroke-linejoin:round;paint-order:stroke fill markers;enable-background:accumulate;stop-color:#000000;stop-opacity:1"
         d="m 142.89062,106.99414 c -0.88675,2.41077 0.0489,10.10496 -0.4461,14.30235 1.14753,6.98527 -2.9361,17.38579 0.53786,22.4633 5.97357,2.19692 8.62558,0.98364 7.17161,-5.90897 -0.1665,-8.5374 1.35342,-17.29392 -0.63509,-25.67535 -0.89093,-2.91528 -3.49404,-5.2211 -6.62828,-5.18133 z m 0.4375,0.86914 c 8.37972,1.64122 6.04537,12.41849 6.31672,18.66594 -0.79722,5.27797 1.07607,14.51051 -1.46473,17.31658 -10.85444,1.25592 -3.34058,-11.65671 -5.08519,-17.95566 0.14586,-6.0068 0.34354,-12.01827 0.2332,-18.02686 z"
         id="path37" /></g></g><metadata
     id="metadata1"><rdf:RDF><cc:Work
         rdf:about=""><dc:creator><cc:Agent><dc:title>Creator:Daniel Berge / Wikimedia Commons User: Hedwig Storch</dc:title></cc:Agent></dc:creator><dc:contributor><cc:Agent><dc:title>source: https://commons.wikimedia.org/wiki/File:Deir_el-Bahari_TIII.JPG original photograph by Creator:Daniel Berge / Wikimedia Commons User: Hedwig Storch used as inspiration for these glyphs which were traced and remixed. Under the license used in the creation of this new work, the current image must also be available for use under the same terms of the license, you can find the terms of CC BY-SA 4.0 here:  https://creativecommons.org/licenses/by-sa/4.0/deed.en
revised:
Icon Credit: Traced and remixed glyphs based on Deir el-Bahari TIII by Daniel Berge / Hedwig Storch, used under CC BY-SA 4.0. This derivative work is licensed under the same terms.</dc:title></cc:Agent></dc:contributor><dc:source>https://commons.wikimedia.org/wiki/File:Deir_el-Bahari_TIII.JPG</dc:source></cc:Work></rdf:RDF></metadata></svg>
